<?xml version="1.0" encoding="iso-8859-1"?>
<!-- Uploaded to: SVG Repo, www.svgrepo.com, Generator: SVG Repo Mixer Tools -->
<svg version="1.1" id="Layer_1" xmlns="http://www.w3.org/2000/svg" xmlns:xlink="http://www.w3.org/1999/xlink" 
	 viewBox="0 0 512 512" xml:space="preserve">
<rect x="14.222" y="219.022" style="fill:#7BFFCD;" width="483.556" height="267.378"/>
<rect x="176.398" y="284.786" style="fill:#4DA081;" width="159.189" height="134.969"/>
<g>
	<path style="fill:#FFDC64;" d="M141.046,425.358c-40.306,0-73.097-32.791-73.097-73.097s32.791-73.097,73.097-73.097
		c40.304,0,73.097,32.792,73.097,73.097S181.35,425.358,141.046,425.358z"/>
	<path style="fill:#FFDC64;" d="M370.954,425.358c-40.306,0-73.097-32.791-73.097-73.097s32.791-73.097,73.097-73.097
		s73.097,32.792,73.097,73.097S411.26,425.358,370.954,425.358z"/>
</g>
<rect x="14.222" y="125.156" style="fill:#767B95;" width="483.556" height="93.867"/>
<path d="M392.178,184.86c-0.924,0-1.863-0.087-2.773-0.27c-0.91-0.183-1.806-0.455-2.66-0.811c-0.868-0.356-1.692-0.796-2.46-1.308
	c-0.782-0.526-1.508-1.108-2.162-1.778c-0.654-0.654-1.252-1.38-1.764-2.162c-0.512-0.768-0.953-1.593-1.308-2.446
	c-0.356-0.855-0.626-1.749-0.811-2.66c-0.185-0.924-0.284-1.849-0.284-2.788c0-3.74,1.522-7.41,4.167-10.055
	c0.654-0.654,1.38-1.252,2.162-1.764c0.768-0.511,1.593-0.953,2.46-1.308c0.853-0.356,1.749-0.624,2.66-0.811
	c4.622-0.923,9.529,0.583,12.828,3.883c2.645,2.645,4.167,6.315,4.167,10.055c0,0.939-0.085,1.863-0.27,2.788
	c-0.185,0.91-0.455,1.806-0.811,2.66c-0.356,0.853-0.796,1.678-1.308,2.446c-0.526,0.782-1.124,1.508-1.778,2.162
	C399.588,183.353,395.932,184.86,392.178,184.86z"/>
<g>
	<rect x="120.747" y="75.378" style="fill:#FFDC64;" width="85.476" height="49.778"/>
	<rect x="206.293" y="75.378" style="fill:#FFDC64;" width="85.476" height="49.778"/>
</g>
<path d="M497.778,110.933H448V25.6c0-7.854-6.367-14.222-14.222-14.222H78.222C70.367,11.378,64,17.746,64,25.6v85.333H14.222
	C6.367,110.933,0,117.302,0,125.156v93.867V486.4c0,7.854,6.367,14.222,14.222,14.222h483.556c7.855,0,14.222-6.369,14.222-14.222
	V219.022v-93.867C512,117.302,505.633,110.933,497.778,110.933z M92.444,39.822h327.111v71.111H305.984V75.378
	c0-7.854-6.367-14.222-14.222-14.222h-85.47c-0.011,0-0.023,0.001-0.034,0.001s-0.024-0.001-0.036-0.001h-85.47
	c-7.855,0-14.222,6.369-14.222,14.222v35.556H92.444V39.822z M192,110.933h-57.025V89.6H192V110.933z M277.54,110.933h-57.025V89.6
	h57.025V110.933L277.54,110.933z M120.752,139.378h85.47h0.068h85.47h191.795V204.8H28.444v-19.934h321.07
	c7.855,0,14.222-6.369,14.222-14.222s-6.367-14.222-14.222-14.222H28.444v-17.044H120.752z M483.556,472.178H28.444V233.244h455.111
	V472.178z"/>
<path d="M141.046,439.58c11.25,0,21.998-2.163,31.882-6.054c1.114,0.28,165.03,0.28,166.144,0
	c9.884,3.891,20.632,6.054,31.882,6.054c48.148,0,87.319-39.171,87.319-87.319s-39.171-87.319-87.319-87.319
	c-11.251,0-21.999,2.163-31.885,6.054c-1.112-0.279-165.026-0.279-166.14,0c-9.886-3.891-20.634-6.054-31.885-6.054
	c-48.148,0-87.319,39.171-87.319,87.319C53.727,400.41,92.898,439.58,141.046,439.58z M210.169,405.522
	c11.393-14.751,18.194-33.222,18.194-53.259c0-20.039-6.801-38.508-18.193-53.259h91.659c-11.392,14.751-18.193,33.22-18.193,53.259
	c0,20.038,6.801,38.508,18.194,53.259H210.169z M429.828,352.263c0,32.462-26.411,58.874-58.874,58.874
	s-58.874-26.411-58.874-58.874s26.411-58.874,58.874-58.874S429.828,319.798,429.828,352.263z M141.046,293.387
	c32.464,0,58.874,26.411,58.874,58.874c0,32.462-26.411,58.874-58.874,58.874s-58.874-26.411-58.874-58.874
	S108.582,293.387,141.046,293.387z"/>
</svg>